<svg
  data-v-0dd9719b=""
  version="1.0"
  xmlns="http://www.w3.org/2000/svg"
  xmlns:xlink="http://www.w3.org/1999/xlink"
  width="100%"
  height="100%"
  viewBox="0 0 340.000000 250.000000"
  preserveAspectRatio="xMidYMid meet"
  color-interpolation-filters="sRGB"
  style="margin: auto"
>

  <rect
    data-v-0dd9719b=""
    x="0"
    y="0"
    width="100%"
    height="100%"
    fill="url(#watermark)"
    fill-opacity="1"
    class="watermarklayer"
  ></rect>
  <g
    data-v-0dd9719b=""
    fill="#333333"
    class="newinitialsvg-g newinitialsvg"
    transform="translate(59.52318859100342,94.23542594909668)"
  >
    <g class="tp-name">
      <g transform="translate(0, 2.371330117160582)">
        <g data-gra="path-name" fill="#333333" transform="translate(0,3)">
          <g transform="scale(1)">
            <path
              d="M30.06-38.47L30.06 0L22.32 0L22.32-16.46L10.86-16.46L10.86 0L3.09 0L3.09-38.47L10.86-38.47L10.86-22.90L22.32-22.90L22.32-38.47L30.06-38.47Z"
              transform="translate(-3.090971743625086, 40.578911095796)"
            ></path>
          </g>
        </g>
      </g>
      <g transform="translate(28.97335171146336, 2.371330117160582)">
        <g data-gra="path-name" fill="#333333" transform="translate(0,3)">
          <g transform="scale(1)">
            <path
              d="M16.04-13.53L10.86-13.53L10.86 0L3.09 0L3.09-38.47L16.19-38.47Q21.90-38.47 25.30-34.93Q28.69-31.39 28.69-25.73Q28.69-20.08 25.34-16.80Q21.98-13.53 16.04-13.53L16.04-13.53ZM10.86-31.99L10.86-20.00L16.19-20.00Q18.41-20.00 19.63-21.45Q20.84-22.90 20.84-25.68L20.84-25.68Q20.84-28.56 19.60-30.26Q18.36-31.97 16.27-31.99L16.27-31.99L10.86-31.99Z"
              transform="translate(-3.0909717436250865, 40.578911095796)"
            ></path>
          </g>
        </g>
      </g>
      <g
        class="tp-graph"
        transform="translate(56.57293820353779, 0)"
        mask="url(#6b94b5cf-560d-47e5-9b67-cd01554725ff)"
      >
        <rect
          data-gra="graph-name"
          fill="#1582c7"
          x="0"
          y="4.588909149169922"
          width="28.45173443602114"
          height="40.89349873650357"
        ></rect>
        <g data-gra="path-name" transform="translate(0.0006684722830314627,3)">
          <g transform="scale(1.06)" fill="#1582c7">
            <path
              d="M21.40-12.81L29.17-12.81Q28.88-6.23 25.47-2.85Q22.06 0.53 15.85 0.53L15.85 0.53Q9.33 0.53 5.85-3.76Q2.38-8.06 2.38-16.01L2.38-16.01L2.38-22.48Q2.38-30.41 5.97-34.70Q9.56-38.99 15.96-38.99L15.96-38.99Q22.24-38.99 25.51-35.48Q28.77-31.97 29.22-25.39L29.22-25.39L21.43-25.39Q21.32-29.46 20.17-31.00Q19.02-32.55 15.96-32.55L15.96-32.55Q12.84-32.55 11.54-30.37Q10.25-28.19 10.17-23.20L10.17-23.20L10.17-15.93Q10.17-10.20 11.45-8.06Q12.73-5.92 15.85-5.92L15.85-5.92Q18.92-5.92 20.08-7.41Q21.24-8.90 21.40-12.81L21.40-12.81Z"
              transform="translate(-2.3776705720192974, 40.578911095796)"
            ></path>
          </g>
        </g>
      </g>
      <g transform="translate(87.02467263955893, 2.371330117160582)">
        <g data-gra="path-name" fill="#333333" transform="translate(0,3)">
          <g transform="scale(1)">
            <path
              d="M23.83 0L16.30 0Q15.98-0.66 15.67-2.22L15.67-2.22Q13.66 0.53 10.22 0.53L10.22 0.53Q6.63 0.53 4.27-1.85Q1.90-4.23 1.90-8.00L1.90-8.00Q1.90-12.50 4.77-14.95Q7.63-17.41 13.02-17.46L13.02-17.46L15.30-17.46L15.30-19.76Q15.30-21.69 14.64-22.48Q13.98-23.27 12.71-23.27L12.71-23.27Q9.91-23.27 9.91-20.00L9.91-20.00L2.43-20.00Q2.43-23.96 5.40-26.54Q8.37-29.11 12.92-29.11L12.92-29.11Q17.62-29.11 20.20-26.67Q22.77-24.23 22.77-19.68L22.77-19.68L22.77-6.23Q22.83-2.54 23.83-0.45L23.83-0.45L23.83 0ZM11.89-5.34L11.89-5.34Q13.13-5.34 14.00-5.84Q14.87-6.34 15.30-7.03L15.30-7.03L15.30-12.97L13.50-12.97Q11.60-12.97 10.50-11.76Q9.41-10.54 9.41-8.51L9.41-8.51Q9.41-5.34 11.89-5.34Z"
              transform="translate(-1.9021364576154374, 40.578911095796)"
            ></path>
          </g>
        </g>
      </g>
      <g transform="translate(110.95207902595911, 2.371330117160582)">
        <g data-gra="path-name" fill="#333333" transform="translate(0,3)">
          <g transform="scale(1)">
            <path
              d="M24.99-15.59L24.99-13.39Q24.99-6.66 22.68-3.06Q20.37 0.53 15.80 0.53L15.80 0.53Q12.31 0.53 10.20-2.30L10.20-2.30L10.20 10.99L2.72 10.99L2.72-28.58L9.64-28.58L9.91-25.97Q12.05-29.11 15.75-29.11L15.75-29.11Q20.32-29.11 22.63-25.78Q24.94-22.46 24.99-15.59L24.99-15.59ZM17.54-13.39L17.54-15.27Q17.54-19.42 16.63-21.13Q15.72-22.85 13.55-22.85L13.55-22.85Q11.25-22.85 10.20-20.92L10.20-20.92L10.20-7.53Q11.20-5.68 13.61-5.68L13.61-5.68Q15.82-5.68 16.68-7.56Q17.54-9.43 17.54-13.39L17.54-13.39Z"
              transform="translate(-2.721111876866529, 40.578911095796)"
            ></path>
          </g>
        </g>
      </g>
      <g transform="translate(135.22292671720652, 2.371330117160582)">
        <g data-gra="path-name" fill="#333333" transform="translate(0,3)">
          <g transform="scale(1)">
            <path
              d="M3.94-35.61L11.41-35.61L11.41-28.58L15.24-28.58L15.24-22.96L11.41-22.96L11.41-8.77Q11.41-7.08 11.88-6.45Q12.34-5.81 13.66-5.81L13.66-5.81Q14.74-5.81 15.43-6.00L15.43-6.00L15.38-0.18Q13.47 0.53 11.25 0.53L11.25 0.53Q4.02 0.53 3.94-7.77L3.94-7.77L3.94-22.96L0.63-22.96L0.63-28.58L3.94-28.58L3.94-35.61Z"
              transform="translate(-0.6340454858718126, 40.578911095796)"
            ></path>
          </g>
        </g>
      </g>
      <g transform="translate(152.0173213875488, 2.371330117160582)">
        <g data-gra="path-name" fill="#333333" transform="translate(0,3)">
          <g transform="scale(1)">
            <path
              d="M13.05-5.68L13.05-5.68Q16.30-5.68 16.35-9.91L16.35-9.91L23.38-9.91Q23.33-5.23 20.50-2.35Q17.67 0.53 13.21 0.53L13.21 0.53Q7.69 0.53 4.78-2.91Q1.88-6.34 1.82-13.02L1.82-13.02L1.82-15.30Q1.82-22.03 4.69-25.57Q7.56-29.11 13.16-29.11L13.16-29.11Q17.89-29.11 20.61-26.19Q23.33-23.27 23.38-17.91L23.38-17.91L16.35-17.91Q16.33-20.32 15.56-21.61Q14.79-22.90 13.02-22.90L13.02-22.90Q11.07-22.90 10.22-21.52Q9.38-20.13 9.33-16.14L9.33-16.14L9.33-13.24Q9.33-9.75 9.67-8.36Q10.01-6.97 10.81-6.33Q11.60-5.68 13.05-5.68Z"
              transform="translate(-1.822880771881461, 40.578911095796)"
            ></path>
          </g>
        </g>
      </g>
      <g transform="translate(175.57486790719042, 2.371330117160582)">
        <g data-gra="path-name" fill="#333333" transform="translate(0,3)">
          <g transform="scale(1)">
            <path
              d="M10.01-40.58L10.01-26.08Q12.44-29.11 15.98-29.11L15.98-29.11Q19.89-29.11 21.93-26.37Q23.96-23.62 23.99-18.18L23.99-18.18L23.99 0L16.49 0L16.49-18.10Q16.49-20.61 15.71-21.73Q14.93-22.85 13.18-22.85L13.18-22.85Q11.15-22.85 10.01-20.98L10.01-20.98L10.01 0L2.54 0L2.54-40.58L10.01-40.58Z"
              transform="translate(-2.53618194348725, 40.578911095796)"
            ></path>
          </g>
        </g>
      </g>
      <g transform="translate(199.02674017918673, 2.371330117160582)">
        <g data-gra="path-name" fill="#333333" transform="translate(0,3)">
          <g transform="scale(1)">
            <path
              d="M23.83 0L16.30 0Q15.98-0.66 15.67-2.22L15.67-2.22Q13.66 0.53 10.22 0.53L10.22 0.53Q6.63 0.53 4.27-1.85Q1.90-4.23 1.90-8.00L1.90-8.00Q1.90-12.50 4.77-14.95Q7.63-17.41 13.02-17.46L13.02-17.46L15.30-17.46L15.30-19.76Q15.30-21.69 14.64-22.48Q13.98-23.27 12.71-23.27L12.71-23.27Q9.91-23.27 9.91-20.00L9.91-20.00L2.43-20.00Q2.43-23.96 5.40-26.54Q8.37-29.11 12.92-29.11L12.92-29.11Q17.62-29.11 20.20-26.67Q22.77-24.23 22.77-19.68L22.77-19.68L22.77-6.23Q22.83-2.54 23.83-0.45L23.83-0.45L23.83 0ZM11.89-5.34L11.89-5.34Q13.13-5.34 14.00-5.84Q14.87-6.34 15.30-7.03L15.30-7.03L15.30-12.97L13.50-12.97Q11.60-12.97 10.50-11.76Q9.41-10.54 9.41-8.51L9.41-8.51Q9.41-5.34 11.89-5.34Z"
              transform="translate(-1.9021364576154374, 40.578911095796)"
            ></path>
          </g>
        </g>
      </g>
    </g>
    <!---->
  </g>
  <mask id="6b94b5cf-560d-47e5-9b67-cd01554725ff">
    <rect
      data-gra="graph-name"
      x="0"
      y="4.588909149169922"
      width="28.45173443602114"
      height="40.89349873650357"
      fill="white"
    ></rect>
    <g
      data-gra="path-name"
      transform="translate(0.0006684722830314627,3)"
      fill="black"
    >
      <g transform="scale(1.06)">
        <path
          d="M21.40-12.81L29.17-12.81Q28.88-6.23 25.47-2.85Q22.06 0.53 15.85 0.53L15.85 0.53Q9.33 0.53 5.85-3.76Q2.38-8.06 2.38-16.01L2.38-16.01L2.38-22.48Q2.38-30.41 5.97-34.70Q9.56-38.99 15.96-38.99L15.96-38.99Q22.24-38.99 25.51-35.48Q28.77-31.97 29.22-25.39L29.22-25.39L21.43-25.39Q21.32-29.46 20.17-31.00Q19.02-32.55 15.96-32.55L15.96-32.55Q12.84-32.55 11.54-30.37Q10.25-28.19 10.17-23.20L10.17-23.20L10.17-15.93Q10.17-10.20 11.45-8.06Q12.73-5.92 15.85-5.92L15.85-5.92Q18.92-5.92 20.08-7.41Q21.24-8.90 21.40-12.81L21.40-12.81Z"
          transform="translate(-2.3776705720192974, 40.578911095796)"
        ></path>
      </g>
    </g>
  </mask>
  <defs v-gra="od"></defs>
</svg>
